THE COLLECTOR 2009 DVDRip x264

Format                           : AVI
Format/Info                      : Audio Video Interleave
File size                        : 582 MiB
Duration                         : 1h 29mn
Overall bit rate                 : 905 Kbps
Writing application              : MEncoder SVN-r29352(20090610-gcc4.3.3)
Writing library                  : MPlayer

Video
ID                               : 0
Format                           : AVC
Format/Info                      : Advanced Video Codec
Format profile                   : Baseline@L2.1
Format settings, CABAC           : No
Format settings, ReFrames        : 1 frame
Codec ID                         : avc1
Duration                         : 1h 29mn
Bit rate                         : 768 Kbps
Width                            : 640 pixels
Height                           : 360 pixels
Display aspect ratio             : 16:9
Frame rate                       : 25.000 fps
Resolution                       : 24 bits
Colorimetry                      : 4:2:0
Scan type                        : Progressive
Bits/(Pixel*Frame)               : 0.133
Stream size                      : 492 MiB (84%)
Writing library                  : x264 core 67 r1163+17 7d945df
Encoding settings                : cabac=0 / ref=1 / deblock=1:0:0 / 

Audio
ID                               : 1
Format                           : MPEG Audio
Format version                   : Version 1
Format profile                   : Layer 3
Codec ID                         : 55
Codec ID/Hint                    : MP3
Duration                         : 1h 29mn
Bit rate mode                    : Constant
Bit rate                         : 128 Kbps
Channel(s)                       : 2 channels
Sampling rate                    : 44.1 KHz
Resolution                       : 16 bits
Stream size                      : 82.3 MiB (14%)
Alignment                        : Aligned on interleaves
Interleave, duration             : 26 ms (0.65 video frame)
Interleave, preload duration     : 522 ms
Writing library                  : LAME3.98


Handyman and ex-con Arkin aims to repay a debt to his ex-wife by robbing his new employer's country home. Unfortunately for Arkin, a far worse enemy has already laid claim to the property - and the family. As the seconds tick down to midnight, Arkin becomes a reluctant hero trapped by a masked "Collector" in a maze of lethal invention - the Spanish Inquisition as imagined by Rube Goldberg - while trying to rescue the very family he came to rob.
 
http://www.imdb.com/title/tt0844479/

PLEASE SEED AND ENJOY THANKS

screens
 
http://img4.imageshack.us/img4/3184/vlcsnap00001xt.png 
http://img714.imageshack.us/img714/2775/vlcsnap00002v.png 
http://img521.imageshack.us/img521/2733/vlcsnap00004b.png 
http://img35.imageshack.us/img35/2102/vlcsnap00007ol.png
